<?xml version="1.0" standalone="no"?>
<!DOCTYPE svg PUBLIC "-//W3C//DTD SVG 20010904//EN"
 "http://www.w3.org/TR/2001/REC-SVG-20010904/DTD/svg10.dtd">
<svg version="1.0" xmlns="http://www.w3.org/2000/svg"
 width="1003.000000pt" height="1003.000000pt" viewBox="0 0 1003.000000 1003.000000"
 preserveAspectRatio="xMidYMid meet">
<metadata>
Created by potrace 1.14, written by Peter Selinger 2001-2017
</metadata>
<g transform="translate(0.000000,1003.000000) scale(0.100000,-0.100000)"
fill="#000000" stroke="none">
<path d="M0 5015 l0 -5015 5015 0 5015 0 0 5015 0 5015 -5015 0 -5015 0 0
-5015z m7044 3530 l2026 -1170 0 -2341 0 -2341 -2031 -1172 -2030 -1172 -702
405 c-386 223 -1298 749 -2027 1170 l-1325 765 -3 2343 -2 2344 2027 1171
c1116 645 2031 1171 2034 1170 4 -1 918 -528 2033 -1172z"/>
<path d="M3095 8347 l-1910 -1103 -3 -2206 c-2 -1757 1 -2208 10 -2216 7 -5
868 -504 1913 -1107 1675 -967 1902 -1095 1922 -1086 12 6 873 501 1913 1102
l1890 1091 0 2212 0 2212 -1909 1102 c-1050 606 -1910 1102 -1912 1102 -2 0
-863 -496 -1914 -1103z m2183 -1218 c191 -20 409 -82 563 -159 394 -199 659
-594 672 -1005 l2 -80 -382 -3 -382 -2 -6 47 c-39 303 -171 468 -440 553 -106
33 -326 39 -457 12 -254 -53 -412 -201 -450 -419 -21 -124 11 -240 92 -341 89
-111 318 -235 587 -317 323 -99 386 -120 488 -162 247 -100 425 -209 573 -348
180 -169 296 -355 353 -565 32 -116 38 -383 11 -510 -41 -200 -120 -346 -267
-496 -267 -272 -640 -404 -1147 -404 -542 0 -1027 193 -1301 518 -190 227
-265 413 -292 735 l-6 67 389 0 389 0 11 -94 c44 -355 260 -551 657 -596 332
-38 615 56 736 243 50 78 72 151 72 248 0 300 -194 486 -655 629 -73 23 -191
60 -263 82 -553 171 -943 447 -1106 783 -22 45 -51 127 -66 181 -24 88 -27
118 -27 269 -1 209 18 296 98 460 135 273 369 467 709 584 254 87 565 121 845
90z"/>
</g>
</svg>
